<svg xmlns="http://www.w3.org/2000/svg" viewBox="0 0 768 768" fill="none" stroke="#ea580c" stroke-width="20">
  <path d="M 673 195 L 672 196 L 668 196 L 667 197 L 665 197 L 664 198 L 662 198 L 661 199 L 660 199 L 659 200 L 658 200 L 657 201 L 656 201 L 654 203 L 653 203 L 651 205 L 650 205 L 645 210 L 644 210 L 637 217 L 637 218 L 629 226 L 628 226 L 626 228 L 625 228 L 623 230 L 622 230 L 621 231 L 620 231 L 618 233 L 617 233 L 615 235 L 614 235 L 612 237 L 611 237 L 610 238 L 609 238 L 607 240 L 606 240 L 604 242 L 603 242 L 601 244 L 600 244 L 599 245 L 598 245 L 595 248 L 594 248 L 593 249 L 592 249 L 591 250 L 590 250 L 588 252 L 587 252 L 585 254 L 584 254 L 582 256 L 581 256 L 580 257 L 579 257 L 577 259 L 576 259 L 575 260 L 574 260 L 572 262 L 571 262 L 569 264 L 568 264 L 567 265 L 566 265 L 564 267 L 563 267 L 562 268 L 561 268 L 559 270 L 558 270 L 557 271 L 556 271 L 555 272 L 554 272 L 552 274 L 551 274 L 550 275 L 549 275 L 548 276 L 547 276 L 546 277 L 545 277 L 543 279 L 542 279 L 541 280 L 540 280 L 539 281 L 538 281 L 537 282 L 536 282 L 535 283 L 534 283 L 533 284 L 532 284 L 530 286 L 529 286 L 528 287 L 527 287 L 526 288 L 525 288 L 524 289 L 523 289 L 522 290 L 521 290 L 520 291 L 519 291 L 518 292 L 517 292 L 516 293 L 515 293 L 514 294 L 513 294 L 512 295 L 511 295 L 510 296 L 509 296 L 508 297 L 507 297 L 506 298 L 505 298 L 504 299 L 502 299 L 501 300 L 500 300 L 499 301 L 498 301 L 497 302 L 496 302 L 495 303 L 494 303 L 493 304 L 492 304 L 491 305 L 490 305 L 489 306 L 487 306 L 486 307 L 485 307 L 484 308 L 483 308 L 482 309 L 481 309 L 480 310 L 478 310 L 477 311 L 476 311 L 475 312 L 474 312 L 473 313 L 471 313 L 470 314 L 469 314 L 468 315 L 467 315 L 466 316 L 464 316 L 463 317 L 462 317 L 461 318 L 460 318 L 459 319 L 457 319 L 456 320 L 454 320 L 453 321 L 452 321 L 451 322 L 449 322 L 448 323 L 447 323 L 446 324 L 444 324 L 443 325 L 441 325 L 440 326 L 438 326 L 437 327 L 435 327 L 434 328 L 432 328 L 431 329 L 430 329 L 429 330 L 427 330 L 426 331 L 424 331 L 423 332 L 421 332 L 420 333 L 418 333 L 417 334 L 415 334 L 414 335 L 412 335 L 411 336 L 409 336 L 408 337 L 405 337 L 404 338 L 402 338 L 401 339 L 398 339 L 397 340 L 395 340 L 394 341 L 392 341 L 391 342 L 388 342 L 387 343 L 384 343 L 383 344 L 380 344 L 379 345 L 376 345 L 375 346 L 372 346 L 371 347 L 368 347 L 367 348 L 364 348 L 363 349 L 358 349 L 357 350 L 353 350 L 352 351 L 349 351 L 348 352 L 345 352 L 344 353 L 341 353 L 340 354 L 336 354 L 335 355 L 332 355 L 331 356 L 327 356 L 326 357 L 321 357 L 320 358 L 316 358 L 315 359 L 312 359 L 311 360 L 307 360 L 306 361 L 302 361 L 301 362 L 299 362 L 298 363 L 296 363 L 295 364 L 293 364 L 292 365 L 289 365 L 288 366 L 287 366 L 286 367 L 284 367 L 283 368 L 282 368 L 281 369 L 280 369 L 279 370 L 278 370 L 277 371 L 276 371 L 275 372 L 274 372 L 273 373 L 272 373 L 270 375 L 269 375 L 267 377 L 266 377 L 264 379 L 263 379 L 261 381 L 260 381 L 256 385 L 255 385 L 241 399 L 241 400 L 238 403 L 238 404 L 235 407 L 235 408 L 233 410 L 233 411 L 232 412 L 232 413 L 230 415 L 230 416 L 229 417 L 229 418 L 228 419 L 228 420 L 227 421 L 227 422 L 226 423 L 226 424 L 225 425 L 225 426 L 224 427 L 224 428 L 223 429 L 223 431 L 222 432 L 222 433 L 221 434 L 221 436 L 220 437 L 220 439 L 219 440 L 219 442 L 218 443 L 218 446 L 217 447 L 217 451 L 216 452 L 216 455 L 215 456 L 215 461 L 214 462 L 214 471 L 213 472 L 213 498 L 214 499 L 214 508 L 215 509 L 215 514 L 216 515 L 216 519 L 217 520 L 217 523 L 218 524 L 218 527 L 219 528 L 219 530 L 220 531 L 220 533 L 221 534 L 221 536 L 222 537 L 222 538 L 223 539 L 223 541 L 224 542 L 224 543 L 225 544 L 225 545 L 226 546 L 226 548 L 227 549 L 227 550 L 229 552 L 229 553 L 230 554 L 230 555 L 232 557 L 232 558 L 233 559 L 233 560 L 235 562 L 235 563 L 237 565 L 237 566 L 240 569 L 240 570 L 244 574 L 244 575 L 256 587 L 257 587 L 261 591 L 262 591 L 264 593 L 265 593 L 267 595 L 268 595 L 270 597 L 271 597 L 272 598 L 273 598 L 274 599 L 275 599 L 276 600 L 277 600 L 278 601 L 279 601 L 280 602 L 281 602 L 282 603 L 283 603 L 284 604 L 285 604 L 286 605 L 288 605 L 289 606 L 290 606 L 291 607 L 294 607 L 295 608 L 298 608 L 299 609 L 303 609 L 304 610 L 307 610 L 310 613 L 310 614 L 311 615 L 311 617 L 312 618 L 312 622 L 313 623 L 313 626 L 314 627 L 314 631 L 315 632 L 315 636 L 316 637 L 316 640 L 317 641 L 317 644 L 318 645 L 318 649 L 319 650 L 319 653 L 320 654 L 320 657 L 321 658 L 321 662 L 322 663 L 322 665 L 323 666 L 323 668 L 324 669 L 324 673 L 325 674 L 325 677 L 326 678 L 326 680 L 327 681 L 327 683 L 328 684 L 328 687 L 329 688 L 329 691 L 330 692 L 330 695 L 331 696 L 331 699 L 332 700 L 332 702 L 333 703 L 333 705 L 334 706 L 334 708 L 335 709 L 335 712 L 336 713 L 336 715 L 337 716 L 337 718 L 338 719 L 338 721 L 339 722 L 339 724 L 340 725 L 340 727 L 341 728 L 341 730 L 342 731 L 342 733 L 343 734 L 343 736 L 344 737 L 344 739 L 345 740 L 345 741 L 346 742 L 346 744 L 347 745 L 347 747 L 348 748 L 348 749 L 349 750 L 349 752 L 350 753 L 350 754 L 351 755 L 351 757 L 352 758 L 352 759 L 353 760 L 353 761 L 354 762 L 354 764 L 355 765 L 355 766 L 356 767 L 356 768 L 357 769 L 357 770 L 358 771 L 358 772 L 359 773 L 359 774 L 361 776 L 361 777 L 362 778 L 362 779 L 366 783 L 366 784 L 373 791 L 374 791 L 376 793 L 377 793 L 379 795 L 380 795 L 382 797 L 383 797 L 384 798 L 386 798 L 387 799 L 388 799 L 389 800 L 391 800 L 392 801 L 396 801 L 397 802 L 409 802 L 410 801 L 414 801 L 415 800 L 418 800 L 419 799 L 422 799 L 423 798 L 426 798 L 427 797 L 429 797 L 430 796 L 433 796 L 434 795 L 436 795 L 437 794 L 439 794 L 440 793 L 443 793 L 444 792 L 446 792 L 447 791 L 449 791 L 450 790 L 452 790 L 453 789 L 454 789 L 455 788 L 457 788 L 458 787 L 459 787 L 460 786 L 462 786 L 464 784 L 465 784 L 466 783 L 467 783 L 469 781 L 470 781 L 479 772 L 479 771 L 481 769 L 481 768 L 483 766 L 483 764 L 484 763 L 484 762 L 485 761 L 485 759 L 486 758 L 486 755 L 487 754 L 487 738 L 486 737 L 486 733 L 485 732 L 485 730 L 484 729 L 484 726 L 483 725 L 483 723 L 482 722 L 482 721 L 481 720 L 481 719 L 480 718 L 480 717 L 479 716 L 479 715 L 478 714 L 478 712 L 477 711 L 477 710 L 476 709 L 476 708 L 475 707 L 475 706 L 474 705 L 474 703 L 473 702 L 473 701 L 472 700 L 472 699 L 471 698 L 471 696 L 470 695 L 470 694 L 469 693 L 469 691 L 468 690 L 468 688 L 467 687 L 467 685 L 466 684 L 466 683 L 465 682 L 465 680 L 464 679 L 464 677 L 463 676 L 463 674 L 462 673 L 462 671 L 461 670 L 461 668 L 460 667 L 460 664 L 459 663 L 459 661 L 458 660 L 458 658 L 457 657 L 457 654 L 456 653 L 456 650 L 455 649 L 455 646 L 454 645 L 454 642 L 453 641 L 453 639 L 452 638 L 452 634 L 451 633 L 451 630 L 450 629 L 450 625 L 451 624 L 456 624 L 457 625 L 461 625 L 462 626 L 466 626 L 467 627 L 471 627 L 472 628 L 476 628 L 477 629 L 481 629 L 482 630 L 485 630 L 486 631 L 490 631 L 491 632 L 493 632 L 494 633 L 498 633 L 499 634 L 502 634 L 503 635 L 506 635 L 507 636 L 509 636 L 510 637 L 513 637 L 514 638 L 517 638 L 518 639 L 520 639 L 521 640 L 524 640 L 525 641 L 528 641 L 529 642 L 531 642 L 532 643 L 534 643 L 535 644 L 537 644 L 538 645 L 540 645 L 541 646 L 544 646 L 545 647 L 547 647 L 548 648 L 550 648 L 551 649 L 552 649 L 553 650 L 555 650 L 556 651 L 558 651 L 559 652 L 561 652 L 562 653 L 564 653 L 565 654 L 566 654 L 567 655 L 569 655 L 570 656 L 572 656 L 573 657 L 575 657 L 576 658 L 577 658 L 578 659 L 579 659 L 580 660 L 582 660 L 583 661 L 584 661 L 585 662 L 587 662 L 588 663 L 589 663 L 590 664 L 592 664 L 593 665 L 594 665 L 595 666 L 596 666 L 597 667 L 599 667 L 600 668 L 601 668 L 602 669 L 604 669 L 605 670 L 606 670 L 607 671 L 608 671 L 609 672 L 610 672 L 611 673 L 612 673 L 613 674 L 614 674 L 615 675 L 616 675 L 617 676 L 618 676 L 619 677 L 620 677 L 621 678 L 622 678 L 624 680 L 626 680 L 628 682 L 629 682 L 630 683 L 631 683 L 632 684 L 633 684 L 634 685 L 635 685 L 637 687 L 638 687 L 639 688 L 640 688 L 641 689 L 642 689 L 643 690 L 644 690 L 646 692 L 647 692 L 648 693 L 649 693 L 650 694 L 651 694 L 652 695 L 653 695 L 655 697 L 656 697 L 658 699 L 659 699 L 660 700 L 661 700 L 663 702 L 664 702 L 666 704 L 667 704 L 669 706 L 670 706 L 672 708 L 673 708 L 675 710 L 676 710 L 677 711 L 678 711 L 679 712 L 681 712 L 682 713 L 683 713 L 684 714 L 687 714 L 688 715 L 691 715 L 692 716 L 708 716 L 709 715 L 713 715 L 714 714 L 716 714 L 717 713 L 718 713 L 719 712 L 721 712 L 722 711 L 723 711 L 724 710 L 725 710 L 726 709 L 727 709 L 729 707 L 730 707 L 733 704 L 734 704 L 746 692 L 746 691 L 749 688 L 749 687 L 751 685 L 751 684 L 754 681 L 754 680 L 755 679 L 755 678 L 757 676 L 757 675 L 758 674 L 758 673 L 759 672 L 759 671 L 760 670 L 760 669 L 761 668 L 761 667 L 762 666 L 762 665 L 763 664 L 763 663 L 764 662 L 764 660 L 765 659 L 765 658 L 766 657 L 766 655 L 767 654 L 767 653 L 768 652 L 768 650 L 769 649 L 769 647 L 770 646 L 770 644 L 771 643 L 771 640 L 772 639 L 772 638 L 773 637 L 773 634 L 774 633 L 774 630 L 775 629 L 775 627 L 776 626 L 776 623 L 777 622 L 777 619 L 778 618 L 778 614 L 779 613 L 779 610 L 780 609 L 780 605 L 781 604 L 781 600 L 782 599 L 782 595 L 783 594 L 783 589 L 784 588 L 784 583 L 785 582 L 785 575 L 786 574 L 786 567 L 787 566 L 787 559 L 788 558 L 788 550 L 789 549 L 789 539 L 790 538 L 790 524 L 791 523 L 791 500 L 792 499 L 792 476 L 791 475 L 792 474 L 792 466 L 791 465 L 791 442 L 790 441 L 790 431 L 789 430 L 789 419 L 788 418 L 788 409 L 787 408 L 787 402 L 786 401 L 786 394 L 785 393 L 785 386 L 784 385 L 784 380 L 783 379 L 783 373 L 782 372 L 782 368 L 781 367 L 781 362 L 780 361 L 780 357 L 779 356 L 779 352 L 778 351 L 778 347 L 777 346 L 777 343 L 776 342 L 776 338 L 775 337 L 775 334 L 774 333 L 774 330 L 773 329 L 773 326 L 772 325 L 772 322 L 771 321 L 771 318 L 770 317 L 770 314 L 769 313 L 769 311 L 768 310 L 768 307 L 767 306 L 767 304 L 766 303 L 766 301 L 765 300 L 765 297 L 764 296 L 764 294 L 763 293 L 763 291 L 762 290 L 762 287 L 761 286 L 761 285 L 760 284 L 760 282 L 759 281 L 759 279 L 758 278 L 758 277 L 757 276 L 757 274 L 756 273 L 756 272 L 755 271 L 755 269 L 754 268 L 754 267 L 753 266 L 753 265 L 752 264 L 752 262 L 751 261 L 751 260 L 750 259 L 750 258 L 749 257 L 749 256 L 748 255 L 748 254 L 747 253 L 747 252 L 746 251 L 746 250 L 745 249 L 745 248 L 744 247 L 744 246 L 743 245 L 743 244 L 741 242 L 741 241 L 740 240 L 740 239 L 738 237 L 738 236 L 737 235 L 737 234 L 735 232 L 735 231 L 732 228 L 732 227 L 730 225 L 730 224 L 726 220 L 726 219 L 716 209 L 715 209 L 712 206 L 711 206 L 709 204 L 708 204 L 706 202 L 705 202 L 704 201 L 703 201 L 702 200 L 701 200 L 700 199 L 699 199 L 698 198 L 696 198 L 695 197 L 693 197 L 692 196 L 689 196 L 688 195 Z" />
</svg>